#N canvas 45 146 1101 529 10;
#X obj 29 55 adc~;
#X obj 139 418 route 0 1 2 3 4 5 6 7 8 9;
#X obj 140 448 unpack 0 0 0 0;
#X floatatom 140 570 5 0 0 0 - - -, f 5;
#X floatatom 180 540 5 0 0 0 - - -, f 5;
#X floatatom 220 515 5 0 0 0 - - -, f 5;
#X floatatom 261 489 5 0 0 0 - - -, f 5;
#X obj 140 593 ftom;
#X floatatom 140 620 5 0 0 0 - - -, f 5;
#X obj 139 390 sigmund~ -npeak 10 -stabletime 500 peaks;
#X obj 47 274 makenote;
#X msg 105 274 1;
#X floatatom 102 253 5 0 0 0 - - -, f 5;
#X floatatom 65 253 5 0 0 0 - - -, f 5;
#X floatatom 29 199 5 0 0 0 - - -, f 5;
#X obj 422 423 div;
#X obj 422 401 + 0.5;
#X text 420 383 avrundning;
#X floatatom 29 253 5 0 0 0 - - -, f 5;
#X obj 29 177 div;
#X obj 29 155 + 0.5;
#X obj 29 219 sel -1499;
#X text 26 17 Analyze pitch from microphone and send corresponding
midinote to midi output;
#X text 159 363 alternative? reading peaks;
#X text 504 22 play a midi note message;
#X obj 136 206 noteout;
#X obj 529 324 dac~;
#X obj 475 206 mtof;
#X floatatom 594 64 5 0 0 0 - - -, f 5;
#X obj 529 269 *~;
#X obj 730 168 line~;
#X obj 475 234 osc~;
#X obj 730 124 / 127;
#X msg 730 145 \$1 50;
#X obj 529 291 *~;
#X obj 785 170 vsl 15 128 0 1 0 0 empty empty empty 0 -9 0 10 -262144
-1 -1 4000 1;
#X obj 420 90 sel 127;
#X msg 420 186 127;
#X msg 420 208 300;
#X msg 420 163 0;
#X msg 299 65 1;
#X msg 299 85 0;
#X obj 29 83 *~ 0;
#X text 365 59 Don't read or send;
#X text 371 71 when playing note;
#X obj 29 119 sigmund~ -npts 1000 -hop 1000 -stabletime 0 -minpower
90 pitch;
#X obj 508 40 notein 1;
#X obj 489 123 pack;
#X obj 497 98 poly 3 1;
#X obj 489 145 route 1 2 3;
#X obj 516 198 mtof;
#X obj 516 226 osc~;
#X obj 556 196 mtof;
#X obj 556 224 osc~;
#X connect 0 0 42 0;
#X connect 1 0 2 0;
#X connect 2 0 3 0;
#X connect 2 1 4 0;
#X connect 2 2 5 0;
#X connect 2 3 6 0;
#X connect 3 0 7 0;
#X connect 7 0 8 0;
#X connect 9 0 1 0;
#X connect 10 0 25 0;
#X connect 10 1 25 1;
#X connect 11 0 25 2;
#X connect 12 0 10 2;
#X connect 13 0 10 1;
#X connect 14 0 21 0;
#X connect 16 0 15 0;
#X connect 18 0 10 0;
#X connect 19 0 14 0;
#X connect 20 0 19 0;
#X connect 21 1 18 0;
#X connect 27 0 31 0;
#X connect 28 0 32 0;
#X connect 28 0 36 0;
#X connect 29 0 34 0;
#X connect 30 0 29 1;
#X connect 31 0 29 0;
#X connect 32 0 33 0;
#X connect 33 0 30 0;
#X connect 34 0 26 0;
#X connect 34 0 26 1;
#X connect 35 0 34 1;
#X connect 36 0 39 0;
#X connect 36 0 41 0;
#X connect 36 1 38 0;
#X connect 36 1 37 0;
#X connect 36 1 40 0;
#X connect 37 0 13 0;
#X connect 38 0 12 0;
#X connect 39 0 13 0;
#X connect 39 0 12 0;
#X connect 40 0 42 1;
#X connect 41 0 42 1;
#X connect 42 0 45 0;
#X connect 45 0 20 0;
#X connect 46 0 48 0;
#X connect 46 1 28 0;
#X connect 46 1 48 1;
#X connect 47 0 49 0;
#X connect 48 0 47 0;
#X connect 48 1 47 1;
#X connect 49 0 27 0;
#X connect 49 1 50 0;
#X connect 49 2 52 0;
#X connect 50 0 51 0;
#X connect 51 0 29 0;
#X connect 52 0 53 0;
#X connect 53 0 29 0;
