#N canvas 21 153 1056 454 10;
#X obj 29 55 adc~;
#X obj 183 706 route 0 1 2 3 4 5 6 7 8 9;
#X obj 184 736 unpack 0 0 0 0;
#X floatatom 184 858 5 0 0 0 - - -, f 5;
#X floatatom 224 828 5 0 0 0 - - -, f 5;
#X floatatom 264 803 5 0 0 0 - - -, f 5;
#X floatatom 305 777 5 0 0 0 - - -, f 5;
#X obj 184 881 ftom;
#X floatatom 184 908 5 0 0 0 - - -, f 5;
#X obj 183 678 sigmund~ -npeak 10 -stabletime 500 peaks;
#X obj 47 274 makenote;
#X msg 105 274 1;
#X floatatom 102 253 5 0 0 0 - - -, f 5;
#X floatatom 65 253 5 0 0 0 - - -, f 5;
#X floatatom 29 199 5 0 0 0 - - -, f 5;
#X obj 466 711 div;
#X obj 466 689 + 0.5;
#X text 464 671 avrundning;
#X floatatom 29 253 5 0 0 0 - - -, f 5;
#X obj 29 177 div;
#X obj 29 155 + 0.5;
#X obj 29 219 sel -1499;
#X text 26 17 Analyze pitch from microphone and send corresponding
midinote to midi output;
#X text 203 651 alternative? reading peaks;
#X text 504 22 play a midi note message;
#X obj 47 309 noteout;
#X obj 508 397 dac~;
#X obj 508 166 mtof;
#X floatatom 568 95 5 0 0 0 - - -, f 5;
#X obj 508 264 *~;
#X obj 713 236 line~;
#X obj 713 192 / 127;
#X msg 713 213 \$1 50;
#X obj 508 364 *~;
#X obj 583 282 vsl 15 128 0 1 0 0 empty empty empty 0 -9 0 10 -262144
-1 -1 5100 1;
#X obj 868 174 sel 127;
#X msg 100 220 127;
#X msg 131 220 300;
#X msg 179 220 0;
#X msg 87 60 1;
#X msg 87 80 0;
#X text 865 126 Don't read or send;
#X text 866 140 when playing note;
#X obj 508 40 notein 1;
#X obj 508 119 pack;
#X obj 508 95 poly 3 1;
#X obj 508 141 route 1 2 3;
#X obj 540 166 mtof;
#X obj 573 166 mtof;
#X obj 29 119 sigmund~ -npts 1000 -hop 10000 -stabletime 500 -minpower
90 pitch;
#X obj 868 199 t b;
#X obj 868 222 delay 100;
#X obj 868 248 s adcoff;
#X obj 907 199 s adcon;
#X obj 123 60 r adcon;
#X obj 100 192 r adcon;
#X obj 508 242 +~;
#X text 614 342 VOLUME;
#X obj 29 83 *~ 1;
#X obj 634 212 clip~ 0 1;
#X obj 208 220 r adcoff;
#X obj 508 188 osc~;
#X obj 540 188 osc~;
#X obj 574 188 osc~;
#X msg 739 53 0;
#X text 770 54 OFF;
#X obj 571 212 clip~ 0 1;
#X obj 508 212 clip~ 0 1;
#X text 709 171 ramp up velocity;
#X text 869 155 inactive;
#X connect 0 0 58 0;
#X connect 1 0 2 0;
#X connect 2 0 3 0;
#X connect 2 1 4 0;
#X connect 2 2 5 0;
#X connect 2 3 6 0;
#X connect 3 0 7 0;
#X connect 7 0 8 0;
#X connect 9 0 1 0;
#X connect 10 0 25 0;
#X connect 10 1 25 1;
#X connect 11 0 25 2;
#X connect 12 0 10 2;
#X connect 13 0 10 1;
#X connect 14 0 21 0;
#X connect 16 0 15 0;
#X connect 18 0 10 0;
#X connect 19 0 14 0;
#X connect 20 0 19 0;
#X connect 21 1 18 0;
#X connect 27 0 61 0;
#X connect 28 0 31 0;
#X connect 28 0 35 0;
#X connect 29 0 33 0;
#X connect 30 0 29 1;
#X connect 31 0 32 0;
#X connect 32 0 30 0;
#X connect 33 0 26 0;
#X connect 33 0 26 1;
#X connect 34 0 33 1;
#X connect 35 0 50 0;
#X connect 35 1 53 0;
#X connect 36 0 13 0;
#X connect 37 0 12 0;
#X connect 38 0 13 0;
#X connect 38 0 12 0;
#X connect 39 0 58 1;
#X connect 40 0 58 1;
#X connect 43 0 45 0;
#X connect 43 1 28 0;
#X connect 43 1 45 1;
#X connect 44 0 46 0;
#X connect 45 0 44 0;
#X connect 45 1 44 1;
#X connect 46 0 27 0;
#X connect 46 1 47 0;
#X connect 46 2 48 0;
#X connect 47 0 62 0;
#X connect 48 0 63 0;
#X connect 49 0 20 0;
#X connect 50 0 51 0;
#X connect 51 0 52 0;
#X connect 54 0 39 0;
#X connect 55 0 36 0;
#X connect 55 0 37 0;
#X connect 56 0 29 0;
#X connect 58 0 49 0;
#X connect 59 0 56 0;
#X connect 61 0 67 0;
#X connect 62 0 66 0;
#X connect 63 0 59 0;
#X connect 64 0 28 0;
#X connect 66 0 56 0;
#X connect 67 0 56 0;
