#N canvas 544 38 688 628 10;
#X obj 29 55 adc~;
#X obj 139 418 route 0 1 2 3 4 5 6 7 8 9;
#X obj 140 448 unpack 0 0 0 0;
#X floatatom 140 570 5 0 0 0 - - -, f 5;
#X floatatom 180 540 5 0 0 0 - - -, f 5;
#X floatatom 220 515 5 0 0 0 - - -, f 5;
#X floatatom 261 489 5 0 0 0 - - -, f 5;
#X obj 140 593 ftom;
#X floatatom 140 620 5 0 0 0 - - -, f 5;
#X obj 139 390 sigmund~ -npeak 10 -stabletime 500 peaks;
#X obj 136 180 makenote;
#X msg 194 180 1;
#X floatatom 191 159 5 0 0 0 - - -, f 5;
#X floatatom 154 159 5 0 0 0 - - -, f 5;
#X floatatom 29 199 5 0 0 0 - - -, f 5;
#X obj 422 423 div;
#X obj 422 401 + 0.5;
#X text 420 383 avrundning;
#X floatatom 118 159 5 0 0 0 - - -, f 5;
#X obj 29 177 div;
#X obj 29 155 + 0.5;
#X obj 29 219 sel -1499;
#X text 26 17 Analyze pitch from microphone and send corresponding
midinote to midi output;
#X text 159 363 alternative? reading peaks;
#X text 504 32 play a midi note message;
#X obj 136 206 noteout;
#X obj 508 50 notein 1;
#X obj 508 207 dac~;
#X obj 508 94 mtof;
#X floatatom 508 73 5 0 0 0 - - -, f 5;
#X floatatom 553 74 5 0 0 0 - - -, f 5;
#X obj 508 152 *~;
#X obj 553 137 line~;
#X obj 508 122 osc~;
#X obj 553 93 / 127;
#X msg 553 114 \$1 50;
#X obj 508 174 *~;
#X obj 607 97 vsl 15 128 0 1 0 0 empty empty empty 0 -9 0 10 -262144
-1 -1 0 1;
#X obj 420 90 sel 127;
#X msg 420 186 127;
#X msg 420 208 300;
#X msg 420 163 0;
#X msg 299 65 1;
#X msg 299 85 0;
#X obj 29 83 *~ 0;
#X obj 29 119 sigmund~ -npts 10000 -hop 100000 -stabletime 3000 -minpower
90 pitch;
#X text 365 59 Don't read or send;
#X text 371 71 when playing note;
#X connect 0 0 44 0;
#X connect 1 0 2 0;
#X connect 2 0 3 0;
#X connect 2 1 4 0;
#X connect 2 2 5 0;
#X connect 2 3 6 0;
#X connect 3 0 7 0;
#X connect 7 0 8 0;
#X connect 9 0 1 0;
#X connect 10 0 25 0;
#X connect 10 1 25 1;
#X connect 11 0 25 2;
#X connect 12 0 10 2;
#X connect 13 0 10 1;
#X connect 14 0 21 0;
#X connect 16 0 15 0;
#X connect 18 0 10 0;
#X connect 19 0 14 0;
#X connect 20 0 19 0;
#X connect 21 1 18 0;
#X connect 26 0 29 0;
#X connect 26 1 30 0;
#X connect 28 0 33 0;
#X connect 29 0 28 0;
#X connect 30 0 34 0;
#X connect 30 0 38 0;
#X connect 31 0 36 0;
#X connect 32 0 31 1;
#X connect 33 0 31 0;
#X connect 34 0 35 0;
#X connect 35 0 32 0;
#X connect 36 0 27 0;
#X connect 36 0 27 1;
#X connect 37 0 36 1;
#X connect 38 0 41 0;
#X connect 38 0 43 0;
#X connect 38 1 40 0;
#X connect 38 1 39 0;
#X connect 38 1 42 0;
#X connect 39 0 13 0;
#X connect 40 0 12 0;
#X connect 41 0 13 0;
#X connect 41 0 12 0;
#X connect 42 0 44 1;
#X connect 43 0 44 1;
#X connect 44 0 45 0;
#X connect 45 0 20 0;
