#N canvas 406 22 987 632 10;
#X obj 29 55 adc~;
#X obj 139 418 route 0 1 2 3 4 5 6 7 8 9;
#X obj 140 448 unpack 0 0 0 0;
#X floatatom 140 570 5 0 0 0 - - -, f 5;
#X floatatom 180 540 5 0 0 0 - - -, f 5;
#X floatatom 220 515 5 0 0 0 - - -, f 5;
#X floatatom 261 489 5 0 0 0 - - -, f 5;
#X obj 140 593 ftom;
#X floatatom 140 620 5 0 0 0 - - -, f 5;
#X obj 139 390 sigmund~ -npeak 10 -stabletime 500 peaks;
#X obj 47 274 makenote;
#X msg 105 274 1;
#X floatatom 102 253 5 0 0 0 - - -, f 5;
#X floatatom 65 253 5 0 0 0 - - -, f 5;
#X floatatom 29 199 5 0 0 0 - - -, f 5;
#X obj 422 423 div;
#X obj 422 401 + 0.5;
#X text 420 383 avrundning;
#X floatatom 29 253 5 0 0 0 - - -, f 5;
#X obj 29 177 div;
#X obj 29 155 + 0.5;
#X obj 29 219 sel -1499;
#X text 26 17 Analyze pitch from microphone and send corresponding
midinote to midi output;
#X text 159 363 alternative? reading peaks;
#X text 508 20 play a midi note message;
#X obj 47 300 noteout;
#X obj 512 38 notein 1;
#X obj 636 327 dac~;
#X obj 512 180 mtof;
#X floatatom 512 61 5 0 0 0 - - -, f 5;
#X floatatom 557 62 5 0 0 0 - - -, f 5;
#X obj 636 272 *~;
#X obj 668 204 line~;
#X obj 668 160 / 127;
#X msg 668 181 \$1 50;
#X obj 636 294 *~;
#X obj 688 238 vsl 15 128 0 1 0 0 empty empty empty 0 -9 0 10 -262144
-1 -1 6500 1;
#X obj 737 146 sel 127;
#X msg 122 212 127;
#X msg 155 212 300;
#X msg 195 212 0;
#X obj 29 83 *~ 0;
#X text 730 105 Don't read or send;
#X text 732 123 when playing note;
#X obj 29 119 sigmund~ -npts 10000 -hop 10000 -stabletime 300 -minpower
90 pitch;
#X obj 562 180 mtof;
#X obj 612 180 mtof;
#X obj 573 231 +~;
#X obj 612 158 + 7;
#X obj 512 203 phasor~;
#X obj 562 203 phasor~;
#X obj 612 203 phasor~;
#X obj 562 158 + 4;
#X msg 737 175 0;
#X obj 736 196 s recoff;
#X obj 794 238 s recon;
#X obj 71 55 r recoff;
#X obj 71 76 r recon;
#X msg 794 217 1;
#X obj 196 189 r recoff;
#X obj 122 179 r recon;
#X obj 794 175 t b;
#X obj 794 196 delay 200;
#X connect 0 0 41 0;
#X connect 1 0 2 0;
#X connect 2 0 3 0;
#X connect 2 1 4 0;
#X connect 2 2 5 0;
#X connect 2 3 6 0;
#X connect 3 0 7 0;
#X connect 7 0 8 0;
#X connect 9 0 1 0;
#X connect 10 0 25 0;
#X connect 10 1 25 1;
#X connect 11 0 25 2;
#X connect 12 0 10 2;
#X connect 13 0 10 1;
#X connect 14 0 21 0;
#X connect 16 0 15 0;
#X connect 18 0 10 0;
#X connect 19 0 14 0;
#X connect 20 0 19 0;
#X connect 21 1 18 0;
#X connect 26 0 29 0;
#X connect 26 1 30 0;
#X connect 28 0 49 0;
#X connect 29 0 28 0;
#X connect 29 0 48 0;
#X connect 29 0 52 0;
#X connect 30 0 33 0;
#X connect 30 0 37 0;
#X connect 31 0 35 0;
#X connect 32 0 31 1;
#X connect 33 0 34 0;
#X connect 34 0 32 0;
#X connect 35 0 27 0;
#X connect 35 0 27 1;
#X connect 36 0 35 1;
#X connect 37 0 53 0;
#X connect 37 1 61 0;
#X connect 38 0 13 0;
#X connect 39 0 12 0;
#X connect 40 0 13 0;
#X connect 40 0 12 0;
#X connect 41 0 44 0;
#X connect 44 0 20 0;
#X connect 45 0 50 0;
#X connect 46 0 51 0;
#X connect 47 0 31 0;
#X connect 48 0 46 0;
#X connect 49 0 47 0;
#X connect 50 0 47 0;
#X connect 51 0 47 0;
#X connect 52 0 45 0;
#X connect 53 0 54 0;
#X connect 56 0 41 1;
#X connect 57 0 41 1;
#X connect 58 0 55 0;
#X connect 59 0 40 0;
#X connect 60 0 38 0;
#X connect 60 0 39 0;
#X connect 61 0 62 0;
#X connect 62 0 58 0;
