#N canvas 544 38 688 628 10;
#X obj 29 55 adc~;
#X obj 21 353 route 0 1 2 3 4 5 6 7 8 9;
#X obj 22 383 unpack 0 0 0 0;
#X floatatom 22 505 5 0 0 0 - - -, f 5;
#X floatatom 62 475 5 0 0 0 - - -, f 5;
#X floatatom 102 450 5 0 0 0 - - -, f 5;
#X floatatom 143 424 5 0 0 0 - - -, f 5;
#X obj 22 528 ftom;
#X floatatom 22 555 5 0 0 0 - - -, f 5;
#X obj 21 325 sigmund~ -npeak 10 -stabletime 500 peaks;
#X obj 136 180 makenote;
#X msg 194 180 1;
#X floatatom 189 159 5 0 0 0 - - -, f 5;
#X floatatom 154 159 5 0 0 0 - - -, f 5;
#X floatatom 29 199 5 0 0 0 - - -, f 5;
#X obj 304 358 div;
#X obj 304 336 + 0.5;
#X text 302 318 avrundning;
#X floatatom 118 159 5 0 0 0 - - -, f 5;
#X obj 29 177 div;
#X obj 29 155 + 0.5;
#X obj 29 219 sel -1499;
#X text 26 17 Analyze pitch from microphone and send corresponding
midinote to midi output;
#X text 41 298 alternative? reading peaks;
#X obj 29 119 sigmund~ -npts 10000 -hop 100000 -stabletime 500 -minpower
90 pitch;
#X text 460 22 play a midi note message;
#X obj 136 206 noteout;
#X obj 508 50 notein 1;
#X obj 508 182 dac~;
#X obj 508 94 mtof;
#X floatatom 508 73 5 0 0 0 - - -, f 5;
#X floatatom 553 74 5 0 0 0 - - -, f 5;
#X obj 508 152 *~;
#X obj 576 123 line~;
#X msg 553 94 \$1 50;
#X obj 508 122 osc~;
#X connect 1 0 2 0;
#X connect 2 0 3 0;
#X connect 2 1 4 0;
#X connect 2 2 5 0;
#X connect 2 3 6 0;
#X connect 3 0 7 0;
#X connect 7 0 8 0;
#X connect 9 0 1 0;
#X connect 10 0 26 0;
#X connect 10 1 26 1;
#X connect 11 0 26 2;
#X connect 12 0 10 2;
#X connect 13 0 10 1;
#X connect 14 0 21 0;
#X connect 16 0 15 0;
#X connect 18 0 10 0;
#X connect 19 0 14 0;
#X connect 20 0 19 0;
#X connect 21 1 18 0;
#X connect 24 0 20 0;
#X connect 27 0 30 0;
#X connect 27 1 31 0;
#X connect 29 0 35 0;
#X connect 30 0 29 0;
#X connect 31 0 34 0;
#X connect 32 0 28 0;
#X connect 32 0 28 1;
#X connect 33 0 32 1;
#X connect 34 0 33 0;
#X connect 35 0 32 0;
